<svg version="1.1" xmlns="http://www.w3.org/2000/svg" xmlns:xlink="http://www.w3.org/1999/xlink" width="18px" height="18px" viewBox="0,0,256,256"><g fill="#ffffff" fill-rule="nonzero" stroke="none" stroke-width="1" stroke-linecap="butt" stroke-linejoin="miter" stroke-miterlimit="10" stroke-dasharray="" stroke-dashoffset="0" font-family="none" font-weight="none" font-size="none" text-anchor="none" style="mix-blend-mode: normal"><g transform="scale(10.66667,10.66667)"><path d="M4,12c0,0.55228 0.44772,1 1,1h7.59l-2.3,2.29c-0.18931,0.18777 -0.2958,0.44336 -0.2958,0.71c0,0.26664 0.10649,0.52223 0.2958,0.71c0.18777,0.18931 0.44336,0.2958 0.71,0.2958c0.26664,0 0.52223,-0.10649 0.71,-0.2958l4,-4c0.09104,-0.0951 0.16241,-0.20725 0.21,-0.33c0.10002,-0.24346 0.10002,-0.51654 0,-0.76c-0.04759,-0.12275 -0.11896,-0.2349 -0.21,-0.33l-4,-4c-0.39212,-0.39212 -1.02788,-0.39212 -1.42,0c-0.39212,0.39212 -0.39212,1.02788 0,1.42l2.3,2.29h-7.59c-0.55228,0 -1,0.44772 -1,1zM17,2h-10c-1.65685,0 -3,1.34315 -3,3v3c0,0.55228 0.44772,1 1,1c0.55228,0 1,-0.44772 1,-1v-3c0,-0.55228 0.44772,-1 1,-1h10c0.55228,0 1,0.44772 1,1v14c0,0.55228 -0.44772,1 -1,1h-10c-0.55228,0 -1,-0.44772 -1,-1v-3c0,-0.55228 -0.44772,-1 -1,-1c-0.55228,0 -1,0.44772 -1,1v3c0,1.65685 1.34315,3 3,3h10c1.65685,0 3,-1.34315 3,-3v-14c0,-1.65685 -1.34315,-3 -3,-3z"></path></g></g></svg>